<svg width="22px" height="24px" viewBox="0 0 22 24" version="1.1" xmlns="http://www.w3.org/2000/svg" xmlns:xlink="http://www.w3.org/1999/xlink">
    <!-- Generator: Sketch 44.1 (41455) - http://www.bohemiancoding.com/sketch -->
    <desc>Created with Sketch.</desc>
    <defs></defs>
    <g id="Page-1" stroke="none" stroke-width="1" fill="none" fill-rule="evenodd">
        <g id="ic-logo" fill-rule="nonzero" fill="#DEDEDE">
            <g id="Group" transform="translate(10.700000, 12.000000) scale(-1, 1) translate(-10.700000, -12.000000) translate(0.200000, 0.000000)">
                <path d="M3.43571158,7.55392864 L4.87545433,8.66895245 C5.06923009,7.69976605 5.63021858,6.86662549 6.40616036,6.32487541 L3.63452498,4.17832899 L4.49284767,3.03923189 C4.84364061,2.57346219 4.7557555,1.90734739 4.29636647,1.55149336 L2.20691034,4.32284141 C1.89754137,4.73336947 1.78950463,5.23491875 1.86395481,5.70775912 C1.93355345,6.15035349 2.16287475,6.56807048 2.54193617,6.86168315 L3.43571158,7.55392864 Z" id="Shape"></path>
                <path d="M11.3270551,16.5512797 C8.23569404,14.9307587 5.48281066,14.4725332 4.78840902,15.5854991 C4.21809117,16.4994446 5.18836906,18.2327433 7.08768798,20.0078511 L5.28474375,22.9401937 L4.05678229,22.9401937 C3.4919686,22.955896 3.03855029,23.4237467 3.03855029,24 L4.63316466,24 L6.74725123,24 L7.39882979,22.9401937 L8.44365066,21.2407593 L8.85200696,20.5769145 C8.70795865,20.3377869 8.62427192,20.0574178 8.62427192,19.7568054 C8.62427192,18.8860169 9.32053925,18.1799601 10.1796089,18.1799601 C10.2272825,18.1799601 10.2738375,18.1845256 10.3203924,18.1886637 L11.3270551,16.5512797 L11.3270551,16.5512797 Z" id="Shape"></path>
                <path d="M20.9598138,6.45285797 C20.7797094,5.66512147 20.0118173,5.07295379 19.0913064,5.07295379 C18.8285412,5.07295379 18.5782684,5.12138467 18.3506916,5.20850371 C17.664522,5.47139789 17.1826127,6.08801776 17.1826127,6.80719856 L17.1826127,15.031192 C17.1826127,15.6170929 16.6597896,16.0924154 16.0145339,16.0924154 C15.5448057,16.0924154 15.1407676,15.8397624 14.955352,15.4764587 C14.9389032,15.4442027 14.9241201,15.4108826 14.9112115,15.3770193 L13.8266274,12.9346842 L15.9318731,6.48085683 C15.9333308,6.47671864 15.9353102,6.47236733 15.9367679,6.46799264 C15.9623772,6.39572448 15.984865,6.32345629 16.0068311,6.25099893 C16.7735769,3.72208965 15.3937454,1.08212917 12.8136685,0 L7.8550633,1.5664388 C7.24635059,1.75533853 6.92091372,2.35564117 7.12569138,2.90900269 L8.38142765,2.50102869 C8.87780854,2.33972627 9.42395246,2.57459741 9.60145384,3.02542165 C9.77895634,3.47624563 9.52045903,3.97266285 9.02418228,4.13387096 L7.72857333,4.55478059 C7.95479766,5.09868267 8.62128955,5.37678224 9.22333853,5.17598776 L10.5916137,4.71937003 C10.688745,5.21959483 10.3793405,5.72535299 9.83517372,5.90195568 L7.21397351,6.76860507 C6.10815217,7.19805147 5.32381117,8.17575179 5.26946793,9.32522992 C5.26748963,9.36741741 5.26426303,9.40941672 5.26426303,9.45200605 C5.26426303,9.47809045 5.2671773,9.503654 5.26801025,9.52957157 C5.26280534,9.51763005 5.25947346,9.50970768 5.25947346,9.50970768 L1.16807776,9.50970768 L1.16807776,8.07624109 C1.16807776,7.67564499 0.622870914,7.32726344 0.277340362,7.14659379 L0,7.01492213 L0,10.5278687 C0.0147831916,11.5167308 0.900315377,12.3144227 1.99218674,12.3144227 L6.60703195,12.3144227 C7.01575432,12.3144227 7.41302562,12.3585969 7.79363984,12.4414836 C7.77504476,12.4373922 7.75673404,12.4312907 7.73822965,12.4264669 C7.75816599,12.4317872 7.77812808,12.437085 7.79842941,12.4414836 C7.81029694,12.4441081 7.82226973,12.4469463 7.83424248,12.4496888 C9.8909746,12.9121481 11.4529929,14.5142711 11.6609983,16.4765768 C11.6645384,16.5108195 11.6668279,16.5454163 11.6696392,16.5800375 C11.6789048,16.6937358 11.6850469,16.8080018 11.6850469,16.9237834 C11.6850469,18.0284241 11.2570644,19.0420695 10.5439331,19.8360962 C10.4916711,19.8943421 10.4378474,19.9514974 10.3825671,20.0072836 C10.2369222,20.1958985 10.1506172,20.4251893 10.1506172,20.6732097 C10.1506172,21.3151083 10.7235168,21.835553 11.4300897,21.835553 C11.6843181,21.835553 11.9210574,21.7682027 12.1201095,21.6522563 L14.7105986,20.2630839 C15.0679973,20.4447001 15.3097322,20.7912598 15.3097322,21.1897034 C15.3097322,21.4530233 15.2041671,21.6942322 15.0292687,21.8796326 L13.9542615,22.9401937 L12.6429338,22.9401937 L12.6423091,22.9401937 L12.5788032,22.9401937 C11.9487491,22.955896 11.4427903,23.4237467 11.4427903,24 L13.7785303,24 L13.7789468,24 L15.189176,24 C15.189176,22.9995972 16.081684,22.1887573 17.1826127,22.1887573 L17.1826127,19.0992025 C16.2690769,18.9338562 15.5804105,18.2019287 15.5804105,17.3233378 C15.5804105,17.2792826 15.5826989,17.235557 15.586136,17.1920695 C15.702944,17.2079366 15.8212095,17.2189087 15.9429099,17.2189087 C16.3970223,17.2189087 16.8201133,17.1025614 17.1826127,16.9039429 C17.8817941,16.5210103 18.3506916,15.8267314 18.3506916,15.031192 L18.3506916,6.80719859 C18.3506916,6.42400717 18.6925774,6.11348621 19.1142084,6.11348621 C19.5209536,6.11348621 19.8525348,6.40272419 19.8754392,6.76730448 C19.3509479,7.09352773 19.0065632,7.64114277 19.0065632,8.26230264 C19.0065632,9.26260984 19.898966,10.0734507 21,10.0734507 L21,6.80719859 C20.9999999,6.68574269 20.98605,6.56740824 20.9598138,6.45285797 L20.9598138,6.45285797 Z" id="Shape"></path>
            </g>
        </g>
    </g>
</svg>
