<svg width="20px" height="19px" viewBox="0 0 20 19" version="1.1" xmlns="http://www.w3.org/2000/svg" xmlns:xlink="http://www.w3.org/1999/xlink">
    <!-- Generator: Sketch 44.1 (41455) - http://www.bohemiancoding.com/sketch -->
    <desc>Created with Sketch.</desc>
    <defs></defs>
    <g id="Page-1" stroke="none" stroke-width="1" fill="none" fill-rule="evenodd">
        <g id="ic-on-campus" fill-rule="nonzero" fill="#DEDEDE">
            <path d="M20,2 L20,4 L15,4 L11.53,9 L14,9 L14,11 L12.46,11 L16.17,19 L13.97,19 L13.04,17 L4.38,17 L3.35,19 L1.1,19 L5.23,11 L5,11 C4.55,11 4.17,10.7 4.04,10.3 L0.87,0.84 L1.82,0.5 C2.34,0.34 2.91,0.63 3.08,1.15 L5.72,9 L10.1,9 L13.57,4 L10,4 L10,2 L20,2 L20,2 Z M7.5,11 L5.42,15 L12.11,15 L10.26,11 L7.5,11 Z" id="Shape"></path>
        </g>
    </g>
</svg>
